<svg width="100" height="100" viewBox="0 0 100 100" fill="none" xmlns="http://www.w3.org/2000/svg">
    <rect width="100" height="100" rx="24" fill="white" />
    <g clip-path="url(#clip0_1352_405)">
        <path
            d="M48.7456 8.0782C48.7541 8.0527 48.7558 8.0255 48.7524 8H50.1617C50.1549 8.0272 50.1566 8.0544 50.1668 8.0799C49.6925 8.3077 49.2199 8.3077 48.7456 8.0782Z"
            fill="#94F1C6" />
        <path
            d="M86.3749 28.7791C87.3779 30.1816 87.8811 31.7456 87.8811 33.4677C87.8811 44.6401 87.8947 55.8125 87.8743 66.9866C87.8675 70.3866 86.363 72.9978 83.439 74.7301C73.8017 80.4353 64.1525 86.1201 54.5067 91.8066C52.9614 92.7178 51.2835 93.0952 49.4951 92.9813C50.0663 92.7841 50.0238 92.3166 50.0238 91.8423C50.017 86.9548 50.0204 82.0673 50.0204 77.1781C50.0204 76.9146 49.9983 76.6494 50.068 76.391C50.1496 76.1615 50.3383 76.0986 50.5559 76.0884C51.3685 76.0476 52.1012 75.762 52.7897 75.354C57.3049 72.6714 61.8371 70.0143 66.3574 67.3402C67.6698 66.5633 69.006 65.8204 70.2963 65.0095C71.8467 64.0337 72.7596 62.6227 72.763 60.7493C72.7783 53.9255 72.763 47.1017 72.7766 40.2779C72.7783 39.4143 72.5913 38.6238 72.1901 37.8724C72.1136 37.7296 72.032 37.5902 72.0252 37.4219C72.0388 37.1958 72.2173 37.104 72.3788 37.0071C76.0491 34.8073 79.7194 32.6109 83.3982 30.4247C84.2176 29.9385 85.0319 29.4455 85.8496 28.9576C86.0111 28.8624 86.1658 28.7349 86.3749 28.7825V28.7791Z"
            fill="#1F86FB" />
        <path
            d="M50.1752 76.2873C50.1701 77.7255 50.1616 79.1637 50.1616 80.6002C50.1599 84.4745 50.1616 88.3488 50.1599 92.2231C50.1599 92.9286 50.1514 92.9286 49.4952 92.9796C48.0689 92.8793 46.7582 92.4322 45.5121 91.7267C35.3988 86.0062 25.2804 80.2942 15.1603 74.5873C13.3022 73.5401 12.2295 71.988 12.0017 69.8596C12.0051 69.7576 12.0136 69.6556 12.0136 69.5519C12.0136 57.5652 12.0136 45.5768 12.0136 33.5901C12.0136 33.4881 12.0051 33.3861 12.0017 33.2824C12.0986 32.0754 12.3111 30.8973 12.8976 29.8144C13.0574 29.7464 13.1815 29.8365 13.3073 29.9079C16.301 31.5892 19.2998 33.262 22.2935 34.9433C23.8932 35.8409 25.4912 36.7419 27.0994 37.6259C27.266 37.7177 27.4445 37.7942 27.5516 37.9659C27.5635 38.0135 27.5635 38.0594 27.5533 38.107C27.232 38.9077 27.1028 39.7322 27.1045 40.5992C27.1198 47.7018 27.1147 54.8044 27.1113 61.907C27.1113 63.2415 27.6621 64.253 28.8249 64.916C31.9342 66.6891 35.0588 68.4367 38.1732 70.2013C41.2621 71.9506 44.3544 73.6948 47.4484 75.4373C48.0927 75.8011 48.7829 76.0425 49.5309 76.0833C49.7366 76.0952 49.9389 76.1258 50.1242 76.2295L50.1752 76.2839V76.2873Z"
            fill="#003144" />
        <path
            d="M27.5143 37.9726C25.238 36.7044 22.96 35.4362 20.6837 34.1663C18.0878 32.7179 15.4919 31.2678 12.896 29.8177C13.5471 28.2911 14.6436 27.1674 16.0529 26.3327C18.2714 25.0186 20.4933 23.713 22.7135 22.4023C30.1187 18.0333 37.5239 13.6643 44.9291 9.29533C46.1089 8.60003 47.3771 8.18353 48.7439 8.07983H50.1651C51.3942 8.17843 52.5587 8.50483 53.6314 9.11003C63.4506 14.6503 73.2664 20.194 83.0805 25.7411C84.4116 26.4942 85.5421 27.4768 86.3734 28.779C83.378 30.5657 80.3792 32.349 77.3855 34.1374C75.6124 35.1965 73.8461 36.2658 72.0764 37.3317C72.039 37.364 71.9982 37.3691 71.9557 37.347C71.7415 37.2076 71.6123 36.9866 71.4491 36.7996C70.6977 35.9343 69.6862 35.443 68.7172 34.8973C66.3134 33.5441 63.9147 32.179 61.5092 30.8258C58.4526 29.1054 55.4096 27.3612 52.3445 25.6527C50.4507 24.597 48.5722 24.6769 46.7039 25.7819C40.9681 29.1751 35.2272 32.5615 29.4846 35.9428C28.8403 36.3219 28.315 36.82 27.9002 37.4422C27.7795 37.6224 27.6996 37.8366 27.5126 37.9692L27.5143 37.9726Z"
            fill="#00DF79" />
        <path
            d="M72.0016 37.3233C72.0271 37.3284 72.0526 37.3301 72.0781 37.3318C72.3382 37.9489 72.7037 38.5218 72.8261 39.1967C72.8601 39.3854 72.8924 39.569 72.8924 39.7594C72.8924 46.8484 72.9077 53.9374 72.8771 61.0264C72.872 62.3847 72.2328 63.5271 71.2247 64.44C70.0857 65.4753 68.6713 66.0856 67.3742 66.8693C64.3448 68.7019 61.2848 70.4835 58.235 72.2838C56.4211 73.3548 54.6106 74.4326 52.7882 75.4917C52.0742 75.9065 51.3177 76.2142 50.4677 76.2074C50.3708 76.2074 50.2722 76.2567 50.1736 76.2839L50.1345 76.289C50.0206 76.1377 50.0206 75.9592 50.0189 75.7841C50.0036 73.3344 49.8744 70.8881 49.9288 68.4384C49.9339 68.2344 49.9169 68.027 49.9849 67.8281C50.041 67.687 50.1668 67.636 50.2977 67.619C51.1715 67.5102 51.894 67.0478 52.625 66.6143C56.1882 64.5063 59.7548 62.4034 63.3231 60.3039C64.5658 59.5729 65.1965 58.5036 65.1931 57.0416C65.1812 52.71 65.1795 48.3784 65.1965 44.0468C65.1999 43.2937 65.0673 42.5916 64.7494 41.9184C64.7494 41.7212 64.9109 41.6532 65.0384 41.5631C67.1634 40.0722 69.3972 38.7513 71.6293 37.4304C71.7432 37.3624 71.8537 37.2893 71.9982 37.3199L72.0016 37.3233Z"
            fill="#1D72B6" />
        <path
            d="M72.0015 37.3233C69.5773 38.787 67.131 40.2201 64.8088 41.847C64.7323 41.8402 64.6626 41.8096 64.6184 41.7484C63.9843 40.8491 63.0204 40.3901 62.1024 39.8716C58.7432 37.9761 55.3806 36.084 52.0282 34.1766C51.9772 34.1477 51.9228 34.1222 51.8735 34.0916C50.3656 33.1498 48.9257 33.2688 47.4161 34.1902C43.8971 36.3373 40.3288 38.3994 36.7741 40.487C36.0533 40.9103 35.409 41.3999 35.0027 42.1513C34.967 42.2159 34.9126 42.2669 34.8463 42.3026C34.6678 42.3434 34.5369 42.2363 34.4026 42.153C32.4374 40.9341 30.4518 39.7509 28.4288 38.6306C28.116 38.4572 27.7369 38.3722 27.5227 38.0407C27.5176 38.0186 27.5142 37.9948 27.5142 37.971C27.8644 37.0785 28.49 36.4138 29.2941 35.9327C31.8543 34.3993 34.4264 32.8863 36.9968 31.3699C40.2982 29.4217 43.5877 27.4548 46.9078 25.5423C48.8118 24.4458 50.7345 24.5733 52.6232 25.6664C54.143 26.5453 55.6798 27.397 57.2064 28.264C58.886 29.2177 60.5622 30.1765 62.2435 31.1268C63.9384 32.0856 65.6452 33.0206 67.3316 33.9947C68.4706 34.6526 69.6725 35.2051 70.7316 35.9973C71.2263 36.3679 71.6581 36.8031 72.0015 37.3216V37.3233Z"
            fill="#00C165" />
        <path
            d="M27.5227 38.0408C29.5321 39.1101 31.5143 40.227 33.4387 41.4408C33.8943 41.7281 34.3601 42.0018 34.8225 42.2823C34.9296 42.4013 34.8854 42.5339 34.8446 42.6563C34.6865 43.1255 34.6882 43.6066 34.6882 44.0928C34.6916 48.6998 34.6984 53.3085 34.6831 57.9155C34.6797 58.9797 35.1149 59.7192 36.0397 60.2411C39.5655 62.2301 43.0981 64.2106 46.6154 66.2149C47.1117 66.4988 47.6166 66.7691 48.1096 67.0581C48.5975 67.342 49.1229 67.5188 49.6788 67.6072C49.8216 67.6293 49.9762 67.6191 50.08 67.7517C50.0851 68.2039 50.0919 68.6578 50.097 69.11C50.1191 71.3285 50.1395 73.547 50.1581 75.7672C50.1581 75.9423 50.1428 76.1174 50.1343 76.2908C48.5397 76.2772 47.2341 75.4884 45.9132 74.7285C44.4309 73.8751 42.9349 73.0404 41.4474 72.1972C39.5383 71.116 37.6309 70.0297 35.7201 68.9502C34.2292 68.107 32.7366 67.2723 31.244 66.4325C30.3396 65.9225 29.4165 65.4414 28.5359 64.8923C27.5363 64.2684 26.994 63.3283 26.9923 62.1468C26.9804 54.762 26.9838 47.3789 26.9906 39.9941C26.9906 39.3022 27.1402 38.6375 27.5193 38.0408H27.5227Z"
            fill="#001719" />
        <path
            d="M50.0801 67.7532C49.3763 67.7532 48.7286 67.556 48.12 67.2109C44.0298 64.8955 39.9396 62.5801 35.846 60.2698C34.9739 59.7785 34.5574 59.0509 34.5591 58.0479C34.5676 53.4545 34.5676 48.8628 34.5574 44.2694C34.5574 43.5911 34.5965 42.9281 34.8226 42.2855C35.1864 41.478 35.8103 40.9289 36.56 40.4869C40.2762 38.3024 43.9907 36.1145 47.6967 33.913C49.0295 33.1208 50.3419 33.1021 51.6849 33.8637C55.6017 36.0822 59.5219 38.2956 63.4421 40.5073C64.0201 40.8337 64.4468 41.3063 64.8072 41.8503C65.2186 42.4895 65.3325 43.1984 65.3325 43.9464C65.3257 48.3375 65.3291 52.7269 65.3308 57.118C65.3308 58.5494 64.7052 59.6289 63.4846 60.3514C59.629 62.6362 55.7649 64.9108 51.9059 67.1905C51.3415 67.5237 50.7363 67.7209 50.0801 67.7566V67.7532Z"
            fill="#CFF0FE" />
    </g>
    <defs>
        <clipPath id="clip0_1352_405">
            <rect width="75.8863" height="85" fill="white" transform="translate(12 8)" />
        </clipPath>
    </defs>
</svg>
